<?xml version="1.0" encoding="UTF-8"?>
<svg xmlns="http://www.w3.org/2000/svg" viewBox="0 0 256 256" role="img" aria-labelledby="title desc">
  <title id="title">BreezeDesk</title>
  <desc id="desc">An original rounded blue mark with flowing audio lines forming the letter B.</desc>
  <defs>
    <linearGradient id="background" x1="30" y1="24" x2="224" y2="232" gradientUnits="userSpaceOnUse">
      <stop offset="0" stop-color="#6F8CF0"/>
      <stop offset="1" stop-color="#3157C5"/>
    </linearGradient>
  </defs>
  <rect x="12" y="12" width="232" height="232" rx="58" fill="url(#background)"/>
  <path d="M65 80c25-18 55-25 85-19 20 4 37 16 37 35 0 16-11 28-29 35 24 5 39 18 39 37 0 24-24 42-57 42-28 0-53-8-75-24" fill="none" stroke="#fff" stroke-width="18" stroke-linecap="round"/>
  <path d="M66 113c25-13 52-17 78-11M66 151c27-10 57-11 84-2" fill="none" stroke="#DDE6FF" stroke-width="12" stroke-linecap="round"/>
  <circle cx="65" cy="80" r="9" fill="#fff"/>
  <circle cx="65" cy="186" r="9" fill="#fff"/>
</svg>
